<svg width="64" height="64" viewBox="0 0 64 64" fill="none" xmlns="http://www.w3.org/2000/svg">
<rect width="64" height="64" rx="32" fill="#DEF3FC"/>
<g clip-path="url(#clip0_575_541)">
<path d="M25.7778 27.6364C24.9187 27.6364 24.2222 28.2876 24.2222 29.0909C24.2222 29.8942 24.9187 30.5455 25.7778 30.5455H38.2222C39.0813 30.5455 39.7778 29.8942 39.7778 29.0909C39.7778 28.2876 39.0813 27.6364 38.2222 27.6364H25.7778Z" fill="#197E90"/>
<path d="M25.7778 33.4545C24.9187 33.4545 24.2222 34.1058 24.2222 34.9091C24.2222 35.7124 24.9187 36.3636 25.7778 36.3636H32C32.8591 36.3636 33.5556 35.7124 33.5556 34.9091C33.5556 34.1058 32.8591 33.4545 32 33.4545H25.7778Z" fill="#197E90"/>
<path d="M25.7778 39.2727C24.9187 39.2727 24.2222 39.9239 24.2222 40.7273C24.2222 41.5306 24.9187 42.1818 25.7778 42.1818H38.2222C39.0813 42.1818 39.7778 41.5306 39.7778 40.7273C39.7778 39.9239 39.0813 39.2727 38.2222 39.2727H25.7778Z" fill="#197E90"/>
<path fill-rule="evenodd" clip-rule="evenodd" d="M45.8114 22.0183C45.6862 21.735 45.5025 21.4776 45.2706 21.2609L40.3744 16.6827C39.9081 16.2461 39.2755 16.0005 38.6156 16H20.4889C19.8288 16 19.1957 16.2452 18.729 16.6816C18.2622 17.1181 18 17.71 18 18.3273V45.6727C18 45.9783 18.0644 46.281 18.1895 46.5633C18.3145 46.8457 18.4979 47.1022 18.729 47.3184C18.9601 47.5345 19.2345 47.7059 19.5364 47.8228C19.8384 47.9398 20.1621 48 20.4889 48H43.5111C43.8379 48 44.1616 47.9398 44.4636 47.8228C44.7655 47.7059 45.0399 47.5345 45.271 47.3184C45.5021 47.1022 45.6855 46.8457 45.8105 46.5633C45.9356 46.281 46 45.9783 46 45.6727V22.9095L44.4444 22.9091L46 22.9127L46 22.9095C46.0004 22.6038 45.9363 22.3009 45.8114 22.0183ZM36.6667 22.5455C36.6667 23.7504 37.7113 24.7273 39 24.7273H42.8889V45.0909H21.1111V18.9091H36.6667V22.5455ZM41.4668 21.8182L39.7778 20.2389V21.8182H41.4668Z" fill="#197E90"/>
</g>
<defs>
<clipPath id="clip0_575_541">
<rect width="32" height="32" fill="white" transform="translate(16 16)"/>
</clipPath>
</defs>
</svg>
